<svg width="28" height="28" viewBox="0 0 28 28" fill="none" xmlns="http://www.w3.org/2000/svg">
<path d="M25.6876 17.0458V23.0667C25.6876 24.6165 24.5727 25.951 23.0356 26.155C20.079 26.5474 17.0629 26.75 14.0001 26.75C10.9372 26.75 7.92116 26.5474 4.96458 26.155C3.42749 25.951 2.31258 24.6165 2.31258 23.0667V17.0458M25.6876 17.0458C26.024 16.7535 26.2931 16.3918 26.4765 15.9856C26.6599 15.5795 26.7532 15.1384 26.7501 14.6928V9.3335C26.7501 7.80208 25.6621 6.47892 24.1477 6.25225C22.543 6.01201 20.9303 5.82914 19.3126 5.704M25.6876 17.0458C25.4127 17.2796 25.0926 17.4637 24.7342 17.5842C21.2721 18.7329 17.6477 19.3164 14.0001 19.3125C10.2487 19.3125 6.64049 18.7047 3.26599 17.5842C2.91644 17.4679 2.59269 17.2851 2.31258 17.0458M2.31258 17.0458C1.97618 16.7535 1.70704 16.3918 1.52364 15.9856C1.34023 15.5795 1.24691 15.1384 1.25008 14.6928V9.3335C1.25008 7.80208 2.33808 6.47892 3.85249 6.25225C5.45715 6.01201 7.06987 5.82914 8.68758 5.704M19.3126 5.704V4.4375C19.3126 3.59212 18.9768 2.78137 18.379 2.1836C17.7812 1.58582 16.9705 1.25 16.1251 1.25H11.8751C11.0297 1.25 10.2189 1.58582 9.62118 2.1836C9.0234 2.78137 8.68758 3.59212 8.68758 4.4375V5.704M19.3126 5.704C15.7762 5.43069 12.224 5.43069 8.68758 5.704M14.0001 15.0625H14.0114V15.0738H14.0001V15.0625Z" stroke="#393939" stroke-width="1.5" stroke-linecap="round" stroke-linejoin="round"/>
</svg>
