<svg width="27" height="30" viewBox="0 0 27 30" fill="none" xmlns="http://www.w3.org/2000/svg">
<path d="M23.0313 16.0469L12.1329 26.9453C10.9373 28.1409 9.3158 28.8125 7.62504 28.8125C5.93427 28.8125 4.31276 28.1409 3.11721 26.9453C1.92165 25.7498 1.25 24.1283 1.25 22.4375C1.25 20.7467 1.92165 19.1252 3.11721 17.9297L18.6155 2.43133C19.0103 2.03674 19.4789 1.72377 19.9947 1.51029C20.5104 1.29681 21.0631 1.187 21.6213 1.18713C22.1795 1.18727 22.7321 1.29733 23.2478 1.51106C23.7634 1.72478 24.2319 2.03797 24.6265 2.43274C25.021 2.82752 25.334 3.29615 25.5475 3.81188C25.761 4.3276 25.8708 4.88033 25.8706 5.4385C25.8705 5.99666 25.7604 6.54933 25.5467 7.06496C25.333 7.58059 25.0198 8.04907 24.625 8.44366L9.11537 23.9533C8.71302 24.3391 8.17522 24.5498 7.61788 24.5428C7.06054 24.5357 6.52829 24.31 6.13584 23.9142C5.74338 23.5184 5.52215 22.9842 5.51982 22.4268C5.51749 21.8695 5.73424 21.3335 6.12337 20.9344L17.1875 9.87024M9.12812 23.9392L9.11396 23.9533" stroke="white" stroke-width="1.5" stroke-linecap="round" stroke-linejoin="round"/>
</svg>
